# xmcd
#
# Track frame offsets: 
#        150
#        16768
#        37339
#        55646
#        82143
#        99898
#        117521
#        140940
#        158535
#        161495
#        175386
#        194000
#        224707
#
# Disc length: 3203 seconds
#
# Revision: 0
# Processed by: cddbd v1.5.2PL0 Copyright (c) Steve Scherf et al.
# Submitted via: ExactAudioCopyFreeDBPlugin 1.0
#
DISCID=bc0c810d
DTITLE=Prince - Art Official Age
DYEAR=2014
DGENRE=Funk
TTITLE0=Art Official Cage
TTITLE1=Clouds
TTITLE2=Breakdown
TTITLE3=The Gold Standard
TTITLE4=U Know
TTITLE5=Breakfast Can Wait
TTITLE6=This Could B Us
TTITLE7=What It Feels Like
TTITLE8=affirmation I and II
TTITLE9=Way Back Home
TTITLE10=Funknroll
TTITLE11=Time
TTITLE12=affirmation III
EXTD=
EXTT0=
EXTT1=
EXTT2=
EXTT3=
EXTT4=
EXTT5=
EXTT6=
EXTT7=
EXTT8=
EXTT9=
EXTT10=
EXTT11=
EXTT12=
PLAYORDER=
